<svg width="781" height="719" viewBox="0 0 781 719" fill="none" xmlns="http://www.w3.org/2000/svg">
<path d="M63.0267 229.274C27.9947 173.518 29.961 123.152 61.2667 70.7412C86.1941 35.6978 143.226 11.5243 212.534 35.8946C281.843 60.265 360.652 60.7746 437.413 84.4686C584.878 129.987 602.858 40.5109 686.589 102.008C770.32 163.506 618.798 341.517 573.88 382.263C528.962 423.009 480.726 531.106 428.225 599.312C375.724 667.519 327.629 679.13 278.942 635.569C230.255 592.009 241.925 578.403 222.736 475.174C203.546 371.945 98.0588 285.03 63.0267 229.274Z" stroke="url(#paint0_linear_2_1080)" stroke-opacity="0.5"/>
<path d="M86.6165 186.312C80.6448 130.304 92.9152 89.2518 159.208 71.6603C178.334 65.3441 205.246 68.5427 248.668 77.5022C292.09 86.4618 391.399 109.258 455.386 115.909C519.372 122.561 597.808 135.5 629.047 182.587C660.286 229.675 581.022 356.507 553.903 382.03C526.785 407.553 470.728 489.16 448.079 530.8C425.43 572.44 368.666 632.64 315.601 614.836C262.535 597.032 263.634 538.085 250.328 493.788C237.022 449.491 199.065 393.647 162.136 333.556C125.208 273.466 92.5882 242.32 86.6165 186.312Z" stroke="url(#paint1_linear_2_1080)" stroke-width="2"/>
<path d="M145.134 195.049C152.434 124.583 220.138 105.008 332.073 119.855C420.064 144.562 532.88 130.17 575.189 191.097C617.497 252.025 553.9 337.232 518.552 396.724C483.204 456.217 450.469 458.835 411.417 506.735C372.364 554.636 353.597 602.021 308.041 566.659C262.486 531.297 278.52 484.955 268.537 449.987C258.553 415.02 255.009 390.601 197.341 338.666C139.672 286.732 137.833 265.516 145.134 195.049Z" stroke="url(#paint2_linear_2_1080)" stroke-opacity="0.5"/>
<path d="M180.545 208.271C204.75 144.841 291.595 162.76 407.733 157.698C486.035 152.624 534.267 203.824 531.066 250.327C527.864 296.829 491.388 401.311 449.438 418.284C407.487 435.256 396.217 502.902 353.254 531.1C310.29 559.298 294.514 507.273 287.529 462.49C280.543 417.707 266.312 381.711 230.561 342.367C194.81 303.023 156.34 271.701 180.545 208.271Z" stroke="url(#paint3_linear_2_1080)" stroke-width="2"/>
<path d="M209.505 248.761C219.394 197.057 317.32 190.997 393.932 189.699C551.818 204.352 486.943 309.555 469.777 356.088C452.612 402.621 410.543 408.559 390.996 444.44C371.448 480.321 346.609 512.441 310.123 482.529C273.637 452.617 310.633 413.209 282.996 373.658C255.358 334.108 199.616 300.465 209.505 248.761Z" stroke="url(#paint4_linear_2_1080)" stroke-opacity="0.5"/>
<path d="M246.683 293.101C243.02 257.648 258.702 223.002 365.801 226.447C416.512 224.66 465.286 243.396 465.553 279.422C465.82 315.448 435.088 371.253 414.643 384.595C394.197 397.938 387.585 438.034 352.911 460.178C318.237 482.322 312.866 398.869 298.65 369.852C284.434 340.835 250.346 328.554 246.683 293.101Z" stroke="url(#paint5_linear_2_1080)" stroke-opacity="0.5"/>
<path d="M321.122 329.565C298.116 293.305 332.319 271.822 381.401 279.826C406.037 284.394 403.127 291.285 399.586 311.664C396.045 332.043 379.407 361.032 358.197 369.849C336.986 378.666 344.129 365.825 321.122 329.565Z" stroke="url(#paint6_linear_2_1080)" stroke-width="2"/>
<path d="M372.965 304.02C345.213 298.233 334.793 322.682 348.214 333.216C361.635 343.75 396 309.44 372.965 304.02Z" stroke="url(#paint7_linear_2_1080)" stroke-opacity="0.5"/>
<path d="M225.403 573.628C221.152 527.802 226.72 484.973 160.449 382.129C145.762 353.773 95.9285 303.425 51.3867 256.838C6.8449 210.251 -4.1515 186.508 3.01567 98.029C10.1829 9.54961 88.7489 -4.29643 134.714 2.48843C180.679 9.27331 417.988 62.5053 479.533 69.3607C554.28 77.6866 612.997 4.93887 686.421 12.3243C759.844 19.7097 795.158 118.471 773.863 175.01C752.567 231.548 620.917 392.823 560.773 460.575C500.628 528.327 479.994 585.336 456.126 630.091C432.257 674.846 385.431 749.076 307.963 703.975C230.495 658.874 229.654 619.454 225.403 573.628Z" stroke="url(#paint8_linear_2_1080)" stroke-width="2"/>
<defs>
<linearGradient id="paint0_linear_2_1080" x1="491.025" y1="-6.11915" x2="116.334" y2="521.103" gradientUnits="userSpaceOnUse">
<stop stop-color="white" stop-opacity="0.66"/>
<stop offset="1" stop-color="white" stop-opacity="0.27"/>
</linearGradient>
<linearGradient id="paint1_linear_2_1080" x1="462.238" y1="56.6498" x2="147.584" y2="499.396" gradientUnits="userSpaceOnUse">
<stop stop-color="white" stop-opacity="0.66"/>
<stop offset="1" stop-color="white" stop-opacity="0.27"/>
</linearGradient>
<linearGradient id="paint2_linear_2_1080" x1="461.446" y1="104.173" x2="191.533" y2="483.963" gradientUnits="userSpaceOnUse">
<stop stop-color="white" stop-opacity="0.66"/>
<stop offset="1" stop-color="white" stop-opacity="0.27"/>
</linearGradient>
<linearGradient id="paint3_linear_2_1080" x1="440.748" y1="142.183" x2="213.851" y2="461.446" gradientUnits="userSpaceOnUse">
<stop stop-color="white" stop-opacity="0.66"/>
<stop offset="1" stop-color="white" stop-opacity="0.27"/>
</linearGradient>
<linearGradient id="paint4_linear_2_1080" x1="425.986" y1="180.501" x2="244.383" y2="436.032" gradientUnits="userSpaceOnUse">
<stop stop-color="white" stop-opacity="0.66"/>
<stop offset="1" stop-color="white" stop-opacity="0.27"/>
</linearGradient>
<linearGradient id="paint5_linear_2_1080" x1="408.771" y1="218.987" x2="269.282" y2="415.26" gradientUnits="userSpaceOnUse">
<stop stop-color="white" stop-opacity="0.66"/>
<stop offset="1" stop-color="white" stop-opacity="0.27"/>
</linearGradient>
<linearGradient id="paint6_linear_2_1080" x1="383.422" y1="275.303" x2="324.913" y2="357.63" gradientUnits="userSpaceOnUse">
<stop stop-color="white" stop-opacity="0.66"/>
<stop offset="1" stop-color="white" stop-opacity="0.27"/>
</linearGradient>
<linearGradient id="paint7_linear_2_1080" x1="371.784" y1="301.819" x2="349.043" y2="333.818" gradientUnits="userSpaceOnUse">
<stop stop-color="white" stop-opacity="0.66"/>
<stop offset="1" stop-color="white" stop-opacity="0.27"/>
</linearGradient>
<linearGradient id="paint8_linear_2_1080" x1="549.993" y1="-98.299" x2="89.1991" y2="550.077" gradientUnits="userSpaceOnUse">
<stop stop-color="white"/>
<stop offset="1" stop-color="white" stop-opacity="0.27"/>
</linearGradient>
</defs>
</svg>
