<svg width="178" height="30" viewBox="0 0 178 30" fill="none" xmlns="http://www.w3.org/2000/svg">
<path d="M19.7969 16.4017C17.7589 15.4217 14.4799 14.7977 11.4969 14.7977C9.66895 14.7977 8.54595 11.6347 8.23295 9.5627L9.41495 7.5557C9.67996 7.10573 10.0578 6.73273 10.5112 6.47358C10.9646 6.21444 11.4777 6.07812 11.9999 6.07812C12.5222 6.07812 13.0353 6.21444 13.4887 6.47358C13.9421 6.73273 14.3199 7.10573 14.5849 7.5557L19.7969 16.4017ZM21.4699 19.2407L21.6099 19.4767C21.8785 19.9324 22.0218 20.4511 22.0252 20.9801C22.0287 21.509 21.8922 22.0295 21.6297 22.4887C21.3671 22.948 20.9878 23.3296 20.5302 23.5949C20.0726 23.8603 19.5529 23.9999 19.0239 23.9997H4.97495C4.44605 23.9998 3.92654 23.86 3.46907 23.5946C3.0116 23.3291 2.63243 22.9475 2.36999 22.4883C2.10755 22.0291 1.97117 21.5087 1.97468 20.9798C1.97818 20.4509 2.12145 19.9324 2.38995 19.4767L6.90695 11.8127C7.32395 14.5727 9.05095 16.7977 11.4969 16.7977C14.2439 16.7977 18.2069 17.3337 21.4699 19.2407Z" fill="white"/>
<path d="M41.096 22H33.296V5.92H41.192C44.744 5.92 46.16 7.72 46.16 10C46.16 12.736 43.712 13.624 41.216 13.744C45.296 13.888 46.736 15.52 46.736 17.8C46.736 20.8 44.504 22 41.096 22ZM40.28 8.968H36.728V12.424H40.328C41.672 12.424 42.536 11.992 42.536 10.696C42.536 9.424 41.648 8.968 40.28 8.968ZM40.64 15.184H36.728V18.952H40.592C42.416 18.952 43.208 18.352 43.208 17.056C43.208 15.76 42.272 15.184 40.64 15.184ZM54.2116 22.24C50.4676 22.24 48.1876 19.744 48.1876 16.12C48.1876 12.496 50.4676 10 53.9236 10C57.6676 10 59.5396 12.496 59.5396 15.568C59.5396 16.072 59.4916 16.744 59.4196 17.008H51.4036C51.6196 18.664 52.7236 19.456 54.2596 19.456C55.9156 19.456 56.8036 18.736 57.2356 17.728L59.3236 19.816C58.4356 21.088 56.8516 22.24 54.2116 22.24ZM53.9476 12.64C52.4836 12.64 51.5716 13.456 51.4036 15.04H56.4436C56.3236 13.48 55.4836 12.64 53.9476 12.64ZM64.0565 22.264C62.2325 22.264 60.9605 21.28 60.9605 19.384C60.9605 17.608 62.0885 16.576 64.3205 15.808L67.9205 14.464C67.8005 13.48 67.3445 12.928 66.0485 12.928C64.5605 12.928 63.1925 13.768 62.3765 14.944L60.6485 12.448C61.8245 11.176 63.7685 10 66.2885 10C69.2645 10 70.9925 11.584 70.9925 14.536V18.568C70.9925 19.096 71.1845 19.264 71.6165 19.264H72.3125V22H70.2965C69.0245 22 67.8725 21.424 67.8725 19.744V18.952C67.4885 20.488 66.4565 22.264 64.0565 22.264ZM64.1285 18.88C64.1285 19.432 64.5125 19.744 65.3285 19.744C66.9605 19.744 67.8725 18.928 67.8725 17.488V16.672L65.3765 17.704C64.4405 18.088 64.1285 18.424 64.1285 18.88ZM77.4864 22.24C75.2544 22.24 73.8624 20.872 73.8624 18.448V10.24H77.2944V17.248C77.2944 18.688 77.6784 19.576 79.2624 19.576C80.8944 19.576 81.3984 18.664 81.3984 16.744V10.24H84.8304V22H81.3984V18.712C80.9904 20.584 79.8624 22.24 77.4864 22.24ZM95.3686 22H91.9366V5.92H96.4726L99.0886 11.896L100.601 16.672L102.113 11.896L104.729 5.92H109.265V22H105.833V15.976L106.313 9.496L104.393 14.848L102.401 19.216H98.8006L96.8086 14.848L94.8646 9.496L95.3686 15.976V22ZM116.996 22.24C113.42 22.24 111.116 19.72 111.116 16.12C111.116 12.544 113.42 10 116.996 10C120.668 10 122.996 12.544 122.996 16.12C122.996 19.72 120.668 22.24 116.996 22.24ZM117.044 19.456C118.508 19.456 119.516 18.52 119.516 16.12C119.516 13.696 118.508 12.784 117.044 12.784C115.604 12.784 114.596 13.696 114.596 16.12C114.596 18.52 115.604 19.456 117.044 19.456ZM128.32 22H124.888V10.24H128.32V13.648C128.704 11.728 129.832 10 132.256 10C134.488 10 135.856 11.368 135.856 13.792V22H132.424V14.992C132.424 13.552 132.04 12.664 130.48 12.664C128.848 12.664 128.32 13.576 128.32 15.496V22ZM142.575 22.24C139.983 22.24 138.759 20.704 138.759 18.52V12.856H137.007V10.24H138.759V8.848L142.191 7.048V10.24H145.455V12.856H142.191V17.896C142.191 18.856 142.671 19.192 143.343 19.192C144.087 19.192 144.735 18.592 145.095 17.944L146.079 20.752C145.575 21.4 144.375 22.24 142.575 22.24ZM149.861 22.264C148.037 22.264 146.765 21.28 146.765 19.384C146.765 17.608 147.893 16.576 150.125 15.808L153.725 14.464C153.605 13.48 153.149 12.928 151.853 12.928C150.365 12.928 148.997 13.768 148.181 14.944L146.453 12.448C147.629 11.176 149.573 10 152.093 10C155.069 10 156.797 11.584 156.797 14.536V18.568C156.797 19.096 156.989 19.264 157.421 19.264H158.117V22H156.101C154.829 22 153.677 21.424 153.677 19.744V18.952C153.293 20.488 152.261 22.264 149.861 22.264ZM149.933 18.88C149.933 19.432 150.317 19.744 151.133 19.744C152.765 19.744 153.677 18.928 153.677 17.488V16.672L151.181 17.704C150.245 18.088 149.933 18.424 149.933 18.88ZM163.171 8.848H159.739V5.92H163.171V8.848ZM163.171 22H159.739V10.24H163.171V22ZM169.03 22H165.598V10.24H169.03V13.648C169.414 11.728 170.542 10 172.966 10C175.198 10 176.566 11.368 176.566 13.792V22H173.134V14.992C173.134 13.552 172.75 12.664 171.19 12.664C169.558 12.664 169.03 13.576 169.03 15.496V22Z" fill="white"/>
</svg>
